<svg height="512pt" viewBox="-31 0 512 512" width="512pt" xmlns="http://www.w3.org/2000/svg"><path d="m145.621094 241h-10.621094c-74.441406 0-135-60.558594-135-135v-76h105v30h-75v46c0 57.890625 47.109375 105 105 105h10.621094zm0 0" fill="#fdbf00"/><path d="m315 241h-10.621094v-30h10.621094c57.890625 0 105-47.109375 105-105v-46h-75v-30h105v76c0 74.441406-60.558594 135-135 135zm0 0" fill="#ff9100"/><path d="m360 0v136c0 35.398438-13.5 69-38.402344 94.199219-13.195312 12.300781-51.597656 50.699219-52.5 87.902343-.296875 13.796876 5.101563 25.796876 15.902344 36.597657l10.5 10.800781-21 21h-99l-21-21 10.5-10.800781c10.800781-10.800781 16.199219-22.800781 15.898438-36.597657-.898438-37.203124-39.300782-75.601562-51-86.402343-26.398438-26.699219-39.898438-60.300781-39.898438-95.699219v-136zm0 0" fill="#ffda2d"/><path d="m360 0v136c0 35.398438-13.5 69-38.402344 94.199219-13.195312 12.300781-51.597656 50.699219-52.5 87.902343-.296875 13.796876 5.101563 25.796876 15.902344 36.597657l10.5 10.800781-21 21h-49.5v-386.5zm0 0" fill="#fdbf00"/><path d="m270 151v30h-90v-30h30v-30h-30v-30h60v60zm0 0" fill="#fdbf00"/><path d="m270 181h-45v-90h15v60h30zm0 0" fill="#ff9100"/><path d="m120 361v151h210v-151zm0 0" fill="#596c76"/><path d="m225 361h105v151h-105zm0 0" fill="#465a61"/><path d="m180 421h90v30h-90zm0 0" fill="#ffda2d"/><path d="m225 421h45v30h-45zm0 0" fill="#fdbf00"/></svg>