<svg id="Capa_1" enable-background="new 0 0 512 512" height="512" viewBox="0 0 512 512" width="512" xmlns="http://www.w3.org/2000/svg"><g><path d="m104.38 497h-80.25v-63.25h66.25z" fill="#26baff"/><path d="m104.38 497h-45.15v-63.25h31.15z" fill="#647cff"/><path d="m203.75 497h-113.37v-126.5h99.37z" fill="#ff5d5c"/><path d="m203.75 497h-63.69v-126.5h49.69z" fill="#e00f5b"/><path d="m420.06 0v195.75h-30v-105.59l15-37.58-15-37.58v-15z" fill="#49458a"/><path d="m336.25 497h-146.5v-221.38h132.5z" fill="#2fe6a9"/><path d="m336.25 497h-80.25v-221.38h66.25z" fill="#29cccc"/><path d="m405.06 0h15v195.75h-15z" fill="#3d3973"/><path d="m322.25 180.75h165.62v316.25h-165.62z" fill="#fff259"/><path d="m405.06 180.75h82.81v316.25h-82.81z" fill="#ffc738"/><path d="m490.21 52.58 12.47 37.58h-112.62v-75.16h112.62z" fill="#f95758"/><path d="m490.21 52.58 12.47 37.58h-97.62v-75.16h97.62z" fill="#e00f5b"/><path d="m0 482h512v30h-512z" fill="#49458a"/><path d="m256 482h256v30h-256z" fill="#3d3973"/></g></svg>