<svg height="512" viewBox="0 0 512 512" width="512" xmlns="http://www.w3.org/2000/svg"><g id="Flat"><path d="m104 232a80 80 0 1 0 80 80 80 80 0 0 0 -80-80zm0 136a56 56 0 1 1 56-56 56 56 0 0 1 -56 56z" fill="#34507b"/><path d="m408 232a80 80 0 1 0 80 80 80 80 0 0 0 -80-80zm0 136a56 56 0 1 1 56-56 56 56 0 0 1 -56 56z" fill="#34507b"/><path d="m414.536 307.387-94.068-133.264 11.532-31.373-15.037-5.468-11.294 30.718h-151.336l13.347-45.76a8 8 0 0 0 -7.68-10.24h-56a32 32 0 0 0 0 64h16v-16h-16a16 16 0 0 1 0-32h45.333l-53.013 181.76 15.36 4.48 35.233-120.8 102.647 139.306a8 8 0 0 0 6.44 3.254 8.14 8.14 0 0 0 .837-.06v.016l152-16a8 8 0 0 0 5.7-12.569zm-254.704-123.387h140.019l-46.267 127.235zm108.061 134.7 45.916-126.269 79.791 113.041z" fill="#7eb357"/><path d="m289.889 120h56.164a13.947 13.947 0 0 1 13.947 13.947 13.947 13.947 0 0 1 -9.537 13.232l-5.188 1.729a60.238 60.238 0 0 1 -19.052 3.092 60.249 60.249 0 0 1 -26.944-6.361l-13.813-6.906a9.888 9.888 0 0 1 -5.466-8.844 9.888 9.888 0 0 1 9.889-9.889z" fill="#91563a"/><circle cx="256" cy="328" fill="#dfdfdd" r="32"/></g></svg>