<svg height="512" viewBox="0 0 512 512" width="512" xmlns="http://www.w3.org/2000/svg"><g id="Flat"><path d="m424 104h-16v-12.223a49.618 49.618 0 0 0 -27.578-44.622l7.156-14.31a65.528 65.528 0 0 1 36.422 58.932z" fill="#51803d"/><path d="m304 417v79h-64v-40h-32v40h-64v-79a64.078 64.078 0 0 1 8.43-31.76l.71-1.24 22.86-40-8-64h112l-8 64 22.86 40 .71 1.24a64.078 64.078 0 0 1 8.43 31.76z" fill="#fdbf92"/><path d="m304 417v79h-64v-40h-32v40h-64v-79a64.078 64.078 0 0 1 8.43-31.76l.71-1.24h141.72l.71 1.24a64.078 64.078 0 0 1 8.43 31.76z" fill="#91563a"/><path d="m456 193.89a9.886 9.886 0 0 1 -5.47 8.84l-26.53 13.27-11.11 77.78a39.855 39.855 0 0 1 -72.71 16.33l-48.51-73.44-11.67 43.33h-112l-8-40-71 72 48 56 20.91-8.9a11.462 11.462 0 0 1 9.11 21.03l-12.02 5.54 23.59 24.68a7.993 7.993 0 0 1 -.12 11.18l-20.81 20.81a8 8 0 0 1 -11.32 0l-34.34-34.34-61.1-67.89a42.467 42.467 0 0 1 -.68-56.04l73.81-86.1a39.983 39.983 0 0 1 30.37-13.97h37.57a8 8 0 0 0 8-8.03l-.05-16.62-.09-29.02h48.33l-.09 29.03-.05 16.62a8.008 8.008 0 0 0 8 8.02h40.16a39.992 39.992 0 0 1 35.17 20.95l40.65 75.05 20-96h54.11a9.9 9.9 0 0 1 9.89 9.89z" fill="#fdc8a2"/><path d="m248.16 130.33-.09 29.03a37.845 37.845 0 0 1 -48.15-.01l-.09-29.02z" fill="#fdb683"/><path d="m282.935 240.72-10.935-56.72h-8l-11.747 25.161a31.882 31.882 0 0 1 -23.03 17.405 31.293 31.293 0 0 1 -33.2-16.858l-12.023-25.708h-8l-10.935 56.72-4.922 7.766a39.059 39.059 0 0 0 15.524 55.847h96.666a39.059 39.059 0 0 0 15.524-55.847z" fill="#7eb357"/><path d="m216 344h16v40h-16z" fill="#fcb079"/><path d="m240 32v40h32v40a40 40 0 0 0 40 40v-80a40 40 0 0 0 -40-40z" fill="#804a32"/><path d="m180.5 111h14.5v-29h-14.5a14.5 14.5 0 0 0 -14.5 14.5 14.5 14.5 0 0 0 14.5 14.5z" fill="#fdbf92"/><path d="m267.5 82h-14.5v29h14.5a14.5 14.5 0 0 0 14.5-14.5 14.5 14.5 0 0 0 -14.5-14.5z" fill="#fdbf92"/><path d="m224 152a38.56 38.56 0 0 1 -37.276-29.633l-1.194-4.867a53.052 53.052 0 0 1 -1.53-12.649v-24.124c0-22.493 17.909-40.727 40-40.727 22.091 0 40 18.234 40 40.727v24.124a53.052 53.052 0 0 1 -1.53 12.651l-1.194 4.865a38.56 38.56 0 0 1 -37.276 29.633z" fill="#fdc8a2"/><path d="m233.667 53s9.666 19.333 35.967 44.9a122.794 122.794 0 0 0 2.7-25.565 48.333 48.333 0 0 0 -48.334-48.335 48.333 48.333 0 0 0 -48.333 48.333 122.957 122.957 0 0 0 .911 14.876c14.892-5.409 36.111-7.709 57.089-34.209z" fill="#91563a"/><path d="m206.187 444.974-25.333-19.333-9.708 12.718 25.333 19.334a8 8 0 0 0 9.708-12.719z" fill="#804a32"/><path d="m267.135 425.65-25.667 19.666a8 8 0 1 0 9.73 12.7l25.667-19.667z" fill="#804a32"/><path d="m440.759 184a21.146 21.146 0 0 1 -14.952-6.193 13.87 13.87 0 0 0 -19.614 0 21.146 21.146 0 0 1 -14.952 6.193 21.146 21.146 0 0 1 -20.061-14.459l-4.945-14.841a121.476 121.476 0 0 1 -6.235-38.416 28.284 28.284 0 0 1 28.284-28.284 28.284 28.284 0 0 1 20 8.284l7.716 7.716 7.716-7.716a28.284 28.284 0 0 1 20-8.284 28.284 28.284 0 0 1 28.284 28.284 121.476 121.476 0 0 1 -6.235 38.42l-4.945 14.837a21.146 21.146 0 0 1 -20.061 14.459z" fill="#7eb357"/><path d="m455.915 24h-5.922c-27.279 0-46.541 24.386-37.915 48h5.922c27.279 0 46.541-24.386 37.915-48z" fill="#5f9448"/></g></svg>