<svg height="512" viewBox="0 0 512 512" width="512" xmlns="http://www.w3.org/2000/svg"><g id="Flat"><path d="m144 264h-64l-56 56v64l104 104h64l56-56v-64z" fill="#2b4266"/><path d="m164.402 421.373h79.196v45.255h-79.196z" fill="#2f486e" transform="matrix(.707 -.707 .707 .707 -254.205 274.294)"/><path d="m28.402 285.373h79.196v45.255h-79.196z" fill="#2f486e" transform="matrix(.707 -.707 .707 .707 -197.872 138.294)"/><path d="m96.402 302.461h79.196v147.078h-79.196z" fill="#34507b" transform="matrix(.707 -.707 .707 .707 -226.039 206.294)"/><path d="m24 320v64l32-32z" fill="#34507b"/><path d="m69.373 346.461h45.255v147.078h-45.255z" fill="#415e89" transform="matrix(.707 -.707 .707 .707 -270.039 188.069)"/><path d="m128 488h64l-32-32z" fill="#34507b"/><path d="m216 400 32 32v-64z" fill="#283f61"/><path d="m157.373 258.461h45.255v147.078h-45.255z" fill="#2b4266" transform="matrix(.707 -.707 .707 .707 -182.039 224.52)"/><path d="m144 264h-64l32 32z" fill="#283f61"/><path d="m384 24h-64l-56 56v64l104 104h64l56-56v-64z" fill="#2b4266"/><path d="m404.402 181.373h79.196v45.255h-79.196z" fill="#2f486e" transform="matrix(.707 -.707 .707 .707 -14.205 373.706)"/><path d="m268.402 45.373h79.196v45.255h-79.196z" fill="#2f486e" transform="matrix(.707 -.707 .707 .707 42.128 237.706)"/><path d="m336.402 62.461h79.196v147.078h-79.196z" fill="#34507b" transform="matrix(.707 -.707 .707 .707 13.961 305.706)"/><path d="m264 80v64l32-32z" fill="#34507b"/><path d="m309.373 106.461h45.255v147.078h-45.255z" fill="#415e89" transform="matrix(.707 -.707 .707 .707 -30.039 287.48)"/><path d="m368 248h64l-32-32z" fill="#34507b"/><path d="m456 160 32 32v-64z" fill="#283f61"/><path d="m397.373 18.461h45.255v147.078h-45.255z" fill="#2b4266" transform="matrix(.707 -.707 .707 .707 57.961 323.931)"/><path d="m384 24h-64l32 32z" fill="#283f61"/><path d="m171.147 227.716h169.706v56.569h-169.706z" fill="#6a7e99" transform="matrix(.707 -.707 .707 .707 -106.039 256)"/><g fill="#57687f"><path d="m248 268.686h16v22.627h-16z" transform="matrix(.707 -.707 .707 .707 -123.009 263.029)"/><path d="m224 292.686h16v22.627h-16z" transform="matrix(.707 -.707 .707 .707 -147.009 253.088)"/><path d="m272 244.686h16v22.627h-16z" transform="matrix(.707 -.707 .707 .707 -99.009 272.971)"/><path d="m296 220.686h16v22.627h-16z" transform="matrix(.707 -.707 .707 .707 -75.009 282.912)"/></g><path d="m94.833 349.17h16v19.327h-16z" fill="#415e89" transform="matrix(.707 -.707 .707 .707 -223.614 177.814)"/><path d="m132 367.716h16v56.569h-16z" fill="#415e89" transform="matrix(.707 -.707 .707 .707 -239.009 214.981)"/></g></svg>