<svg height="512" viewBox="0 0 512 512" width="512" xmlns="http://www.w3.org/2000/svg"><g id="Flat"><path d="m384 152-2.53 24-29.47 280h-128l-29.47-280-2.53-24z" fill="#c94c41"/><path d="m176 120h224v32h-224z" fill="#dfdfdd"/><path d="m272 24h32v96h-32z" fill="#d65246"/><path d="m384 152h-192l2.53 24h186.94z" fill="#b93f33"/><path d="m72 344h-32v-152l32-16z" fill="#ffb431"/><path d="m104 344h-32v-144l32 16z" fill="#f9a40f"/><path d="m136 344h-32v-144l32-16z" fill="#ffb431"/><path d="m168 344h-32v-176l32 16z" fill="#f9a40f"/><path d="m200 344h-32v-144l32 16z" fill="#ffb431"/><path d="m232 344h-32v-136l32-16z" fill="#f9a40f"/><path d="m216 488h-160l-32-240a62.184 62.184 0 0 1 50.6 26.039l2.8 3.922a62.184 62.184 0 0 0 50.6 26.039h16a62.184 62.184 0 0 0 50.6-26.039l2.8-3.922a62.184 62.184 0 0 1 50.6-26.039z" fill="#d65246"/><path d="m264 432h224a0 0 0 0 1 0 0v32a24 24 0 0 1 -24 24h-176a24 24 0 0 1 -24-24v-32a0 0 0 0 1 0 0z" fill="#ffb431"/><rect fill="#865036" height="64" rx="32" transform="matrix(-1 0 0 -1 752 800)" width="224" x="264" y="368"/><path d="m392 416 64-48h-128z" fill="#fdd560"/><rect fill="#91563a" height="64" rx="32" width="224" x="264" y="304"/><path d="m360 352-64-48h128z" fill="#fdd560"/><path d="m264 208h224a0 0 0 0 1 0 0v16a80 80 0 0 1 -80 80h-64a80 80 0 0 1 -80-80v-16a0 0 0 0 1 0 0z" fill="#ffb431" transform="matrix(-1 0 0 -1 752 512)"/><g fill="#ffc261"><path d="m336 232h16v16h-16z"/><path d="m368 232h16v16h-16z"/><path d="m400 232h16v16h-16z"/><path d="m352 264h16v16h-16z"/><path d="m384 264h16v16h-16z"/><path d="m320 264h16v16h-16z"/><path d="m416 264h16v16h-16z"/></g></g></svg>