<svg height="512" viewBox="0 0 512 512" width="512" xmlns="http://www.w3.org/2000/svg"><g id="Flat"><path d="m172 96h-16v-18.667c0-24.997 20.636-45.333 46-45.333v16c-16.542 0-30 13.159-30 29.333z" fill="#699b46"/><path d="m88 280h336v64h-336z" fill="#6e3d26"/><path d="m384 72h-16v-16a32.036 32.036 0 0 1 32-32v16a16.019 16.019 0 0 0 -16 16z" fill="#699b46"/><circle cx="372" cy="132" fill="#ef7800" r="68"/><path d="m460.47 101.9a66.566 66.566 0 0 0 -32.522-38.845 62.487 62.487 0 0 0 -49.419-3.561l-10.529 3.665 3.53 10.941a66.566 66.566 0 0 0 32.522 38.845 62.487 62.487 0 0 0 49.419 3.561l10.529-3.665z" fill="#7eb357"/><path d="m194 208a26.787 26.787 0 0 1 -18.771-7.639 16.077 16.077 0 0 0 -22.45 0 26.787 26.787 0 0 1 -18.779 7.639 26.561 26.561 0 0 1 -24.4-15.807l-8.64-19.806a155.159 155.159 0 0 1 -12.96-62.055c0-18.225 15.038-33 33.588-33a33.9 33.9 0 0 1 23.75 9.668 26.726 26.726 0 0 0 37.324 0 33.9 33.9 0 0 1 23.75-9.665c18.55 0 33.588 14.774 33.588 33a155.159 155.159 0 0 1 -12.965 62.055l-8.64 19.806a26.561 26.561 0 0 1 -24.395 15.804z" fill="#7eb357"/><circle cx="424" cy="208" fill="#f88400" r="64"/><path d="m310.656 97.679a150.131 150.131 0 0 1 -5.6 24.667c-21.211 66.951-87.052 110.7-157.468 100.528s-121.588-70.843-123.526-141.14a150.336 150.336 0 0 1 1.415-25.271c.544-3.876 1.25-7.692 2.081-11.452l13.386-3.211a148.232 148.232 0 0 0 13.164 31.185c21.315 37.8 58.822 65.539 104.4 72.127s89.23-9.418 120.1-39.679a146.646 146.646 0 0 0 21.232-26.214l11.97 6.875c-.237 3.846-.61 7.706-1.154 11.585z" fill="#f9a40f"/><path d="m40.944 41.8a148.232 148.232 0 0 0 13.164 31.185l-30.046 8.749a150.336 150.336 0 0 1 1.415-25.271c.544-3.876 1.25-7.692 2.081-11.452z" fill="#91563a"/><path d="m344 64.557-8.39 28.99-23.962-8.019a149.754 149.754 0 0 1 3.073 23.624c.03.7.063 1.406.082 2.106 2.457 69.424-43.649 133.094-112.361 149.049-69.4 16.116-138.393-21.911-164.68-86.845-.27-.667-.54-1.334-.786-2.006a148.1 148.1 0 0 1 -6.689-22.106c-.841-3.817-1.509-7.636-2.041-11.449l11.4-7.868a145.987 145.987 0 0 0 18.762 20.522c1.455 1.3 2.916 2.568 4.408 3.806a141.236 141.236 0 0 0 122.762 29.365c44.926-10.432 80.179-41.258 98.519-80.746.027-.044.04-.1.067-.141a148.452 148.452 0 0 0 8.624-23.639l-27.394-9.185 11.031-30.015z" fill="#ffb431"/><path d="m58.411 150.555c-7.116 6.986-14.908 14.593-21.435 20.9a148.1 148.1 0 0 1 -6.689-22.106c-.841-3.817-1.509-7.636-2.041-11.449l11.4-7.868a145.987 145.987 0 0 0 18.765 20.523z" fill="#91563a"/><path d="m344 64.557-8.39 28.99-23.962-8.019a149.754 149.754 0 0 1 3.073 23.624c.03.7.063 1.406.082 2.106l-30.636-8.419a148.452 148.452 0 0 0 8.621-23.639l-27.394-9.185 11.031-30.015z" fill="#91563a"/><path d="m378.75 174.6a17.927 17.927 0 0 0 0-25.351 17.927 17.927 0 0 0 -25.351 0l-2.112 2.112c-24.558-12.089-57.312-6.065-80.279 16.9-28 28-30.84 70.564-6.338 95.066s67.064 21.664 95.066-6.338c22.967-22.966 28.991-55.721 16.9-80.279z" fill="#fdd560"/><path d="m24 216h80v192h-80z" fill="#804a32"/><path d="m408 216h80v192h-80z" fill="#804a32"/><path d="m24 328h464v80h-464z" fill="#91563a"/><path d="m24 216h464v80h-464z" fill="#91563a"/><g fill="#754029"><path d="m56 360h16v16h-16z"/><path d="m440 360h16v16h-16z"/><path d="m56 248h16v16h-16z"/><path d="m440 248h16v16h-16z"/></g><circle cx="144" cy="424" fill="#f88400" r="64"/><path d="m112 416h16v16h-16z" fill="#e56b00"/><path d="m136 440h16v16h-16z" fill="#e56b00"/><circle cx="344" cy="464" fill="#d65246" r="24"/><circle cx="408" cy="416" fill="#34507b" r="24"/></g></svg>