<svg height="512" viewBox="0 0 512 512" width="512" xmlns="http://www.w3.org/2000/svg"><g id="Flat"><path d="m400 260c-48 0-48 20-96 20s-48-20-96-20-48 20-96 20c-45.171 0-47.838-17.71-88-19.8v115.8h464v-96.2c-40.163-2.09-42.83-19.8-88-19.8z" fill="#5cc1ed"/><path d="m488 271.78v16.03c-20.44-.99-31.93-5.78-43.08-10.43-11.58-4.82-22.52-9.38-44.92-9.38s-33.34 4.56-44.93 9.38c-12.52 5.22-25.48 10.62-51.08 10.62s-38.55-5.4-51.07-10.62c-11.59-4.82-22.53-9.38-44.93-9.38s-33.33 4.56-44.92 9.38c-12.52 5.22-25.47 10.62-51.07 10.62s-38.55-5.4-51.08-10.62c-10.11-4.21-19.73-8.22-36.92-9.16v-16.03c20.44.99 31.93 5.78 43.08 10.43 11.58 4.82 22.52 9.38 44.92 9.38s33.34-4.56 44.92-9.38c12.52-5.22 25.48-10.62 51.07-10.62s38.55 5.4 51.08 10.62c11.58 4.82 22.52 9.38 44.92 9.38s33.34-4.56 44.93-9.38c12.52-5.22 25.48-10.62 51.08-10.62s38.55 5.4 51.08 10.62c10.11 4.21 19.73 8.22 36.92 9.16z" fill="#4db6e4"/><path d="m488 303.78v16.03c-20.44-.99-31.93-5.78-43.08-10.43-11.58-4.82-22.52-9.38-44.92-9.38s-33.34 4.56-44.93 9.38c-12.52 5.22-25.48 10.62-51.08 10.62s-38.55-5.4-51.07-10.62c-11.59-4.82-22.53-9.38-44.93-9.38s-33.33 4.56-44.92 9.38c-12.52 5.22-25.47 10.62-51.07 10.62s-38.55-5.4-51.08-10.62c-10.11-4.21-19.73-8.22-36.92-9.16v-16.03c20.44.99 31.93 5.78 43.08 10.43 11.58 4.82 22.52 9.38 44.92 9.38s33.34-4.56 44.92-9.38c12.52-5.22 25.48-10.62 51.07-10.62s38.55 5.4 51.08 10.62c11.58 4.82 22.52 9.38 44.92 9.38s33.34-4.56 44.93-9.38c12.52-5.22 25.48-10.62 51.08-10.62s38.55 5.4 51.08 10.62c10.11 4.21 19.73 8.22 36.92 9.16z" fill="#4db6e4"/><path d="m488 344v80h-408v-40l72-72 24-56 26.03-26.03 11.94-11.94 26.03-26.03-56-56-64 56 8 32-16 8-16-24-32 32-40-40 119.03-119.03a57.941 57.941 0 0 1 81.94 0z" fill="#fdc8a2"/><path d="m487.43 128.57a55.842 55.842 0 0 1 -16.4 39.6l-9.43 9.43-22.12 22.12a64.085 64.085 0 0 1 -32.71 17.5l-14.03 2.81a44.849 44.849 0 0 1 -52.77-52.77l2.81-14.03a64.085 64.085 0 0 1 17.5-32.71l31.55-31.55a56 56 0 0 1 95.6 39.6z" fill="#fdc8a2"/><path d="m487.43 128.57a55.842 55.842 0 0 1 -16.4 39.6l-9.43 9.43-5.6-33.6-40-40-33.6-5.6 9.43-9.43a56 56 0 0 1 95.6 39.6z" fill="#91563a"/><path d="m487.43 128.57a55.842 55.842 0 0 1 -16.4 39.6l-22.25-22.25-11.91-11.91-10.82-10.82-11.92-11.92-22.3-22.3a56.016 56.016 0 0 1 92.47 21.11v.01a56.039 56.039 0 0 1 3.09 16.35c.03.71.04 1.42.04 2.13z" fill="#348ed8"/><path d="m449.95 75.71-23.9 47.48-11.92-11.92 19.45-38.66a55.8 55.8 0 0 1 16.37 3.1z" fill="#2d7dbe"/><path d="m487.39 126.44-38.61 19.48-11.91-11.91 47.43-23.92a56.039 56.039 0 0 1 3.09 16.35z" fill="#2d7dbe"/><path d="m371.549 80.284h4a0 0 0 0 1 0 0v40a0 0 0 0 1 0 0h-4a20 20 0 0 1 -20-20 20 20 0 0 1 20-20z" fill="#fdb683" transform="matrix(.707 .707 -.707 .707 177.393 -227.696)"/><path d="m467.716 176.451h4a0 0 0 0 1 0 0v40a0 0 0 0 1 0 0h-4a20 20 0 0 1 -20-20 20 20 0 0 1 20-20z" fill="#fdb683" transform="matrix(-.707 -.707 .707 -.707 645.872 660.431)"/><path d="m397.491 162.511a16 16 0 0 0 -22.629 0l-5.655 5.655a16 16 0 0 0 0 22.628 16 16 0 0 0 22.627 0l5.655-5.655a16 16 0 0 0 0-22.628z" fill="#f09a5d"/><path d="m247.16 284.42-14.32 7.16-30.81-61.61 11.94-11.94z" fill="#fdb683"/><path d="m488 336v152h-464v-171.8c40.17 2.09 42.83 19.8 88 19.8 48 0 48-20 95.99-20s48 20 96 20 48-20 96.01-20c45.17 0 47.83 17.91 88 20z" fill="#4db6e4"/><g fill="#5cc1ed"><path d="m488 355.78v16.03c-20.44-.99-31.93-5.78-43.08-10.43-11.58-4.82-22.52-9.38-44.92-9.38s-33.34 4.56-44.93 9.38c-12.52 5.22-25.48 10.62-51.08 10.62s-38.55-5.4-51.07-10.62c-11.59-4.82-22.53-9.38-44.93-9.38s-33.33 4.56-44.92 9.38c-12.52 5.22-25.47 10.62-51.07 10.62s-38.55-5.4-51.08-10.62c-10.11-4.21-19.73-8.22-36.92-9.16v-16.03c20.44.99 31.93 5.78 43.08 10.43 11.58 4.82 22.52 9.38 44.92 9.38s33.34-4.56 44.92-9.38c12.52-5.22 25.48-10.62 51.07-10.62s38.55 5.4 51.08 10.62c11.58 4.82 22.52 9.38 44.92 9.38s33.34-4.56 44.93-9.38c12.52-5.22 25.48-10.62 51.08-10.62s38.55 5.4 51.08 10.62c10.11 4.21 19.73 8.22 36.92 9.16z"/><path d="m488 391.78v16.03c-20.44-.99-31.93-5.78-43.08-10.43-11.58-4.82-22.52-9.38-44.92-9.38s-33.34 4.56-44.93 9.38c-12.52 5.22-25.48 10.62-51.08 10.62s-38.55-5.4-51.07-10.62c-11.59-4.82-22.53-9.38-44.93-9.38s-33.33 4.56-44.92 9.38c-12.52 5.22-25.47 10.62-51.07 10.62s-38.55-5.4-51.08-10.62c-10.11-4.21-19.73-8.22-36.92-9.16v-16.03c20.44.99 31.93 5.78 43.08 10.43 11.58 4.82 22.52 9.38 44.92 9.38s33.34-4.56 44.92-9.38c12.52-5.22 25.48-10.62 51.07-10.62s38.55 5.4 51.08 10.62c11.58 4.82 22.52 9.38 44.92 9.38s33.34-4.56 44.93-9.38c12.52-5.22 25.48-10.62 51.08-10.62s38.55 5.4 51.08 10.62c10.11 4.21 19.73 8.22 36.92 9.16z"/><path d="m488 427.78v16.03c-20.44-.99-31.93-5.78-43.08-10.43-11.58-4.82-22.52-9.38-44.92-9.38s-33.34 4.56-44.93 9.38c-12.52 5.22-25.48 10.62-51.08 10.62s-38.55-5.4-51.07-10.62c-11.59-4.82-22.53-9.38-44.93-9.38s-33.33 4.56-44.92 9.38c-12.52 5.22-25.47 10.62-51.07 10.62s-38.55-5.4-51.08-10.62c-10.11-4.21-19.73-8.22-36.92-9.16v-16.03c20.44.99 31.93 5.78 43.08 10.43 11.58 4.82 22.52 9.38 44.92 9.38s33.34-4.56 44.92-9.38c12.52-5.22 25.48-10.62 51.07-10.62s38.55 5.4 51.08 10.62c11.58 4.82 22.52 9.38 44.92 9.38s33.34-4.56 44.93-9.38c12.52-5.22 25.48-10.62 51.08-10.62s38.55 5.4 51.08 10.62c10.11 4.21 19.73 8.22 36.92 9.16z"/><path d="m488 463.78v16.03c-20.44-.99-31.93-5.78-43.08-10.43-11.58-4.82-22.52-9.38-44.92-9.38s-33.34 4.56-44.93 9.38c-12.52 5.22-25.48 10.62-51.08 10.62s-38.55-5.4-51.07-10.62c-11.59-4.82-22.53-9.38-44.93-9.38s-33.33 4.56-44.92 9.38c-12.52 5.22-25.47 10.62-51.07 10.62s-38.55-5.4-51.08-10.62c-10.11-4.21-19.73-8.22-36.92-9.16v-16.03c20.44.99 31.93 5.78 43.08 10.43 11.58 4.82 22.52 9.38 44.92 9.38s33.34-4.56 44.92-9.38c12.52-5.22 25.48-10.62 51.07-10.62s38.55 5.4 51.08 10.62c11.58 4.82 22.52 9.38 44.92 9.38s33.34-4.56 44.93-9.38c12.52-5.22 25.48-10.62 51.08-10.62s38.55 5.4 51.08 10.62c10.11 4.21 19.73 8.22 36.92 9.16z"/></g><path d="m278.059 263.999h67.882v16.001h-67.882z" fill="#fdb683" transform="matrix(.707 -.707 .707 .707 -100.95 300.284)"/><rect fill="#34507b" height="32" rx="16" transform="matrix(.707 .707 -.707 .707 202.162 -247.897)" width="56" x="372.319" y="104.083"/><rect fill="#34507b" height="32" rx="16" transform="matrix(.707 .707 -.707 .707 241.76 -264.299)" width="56" x="411.917" y="143.681"/></g></svg>