<svg height="512" viewBox="0 0 512 512" width="512" xmlns="http://www.w3.org/2000/svg"><g id="Flat"><path d="m132 24h56a12 12 0 0 1 12 12v36a0 0 0 0 1 0 0h-80a0 0 0 0 1 0 0v-36a12 12 0 0 1 12-12z" fill="#348ed8"/><path d="m251.314 244.686a16 16 0 0 0 4.686-11.313v-55.4a84.493 84.493 0 0 0 -64-81.973v-24h-64v24a84.493 84.493 0 0 0 -64 81.97v55.4a16 16 0 0 0 4.686 11.313 16 16 0 0 1 0 22.628 16 16 0 0 0 -4.686 11.316v10.746a16 16 0 0 0 4.686 11.313 16 16 0 0 1 0 22.628 16 16 0 0 0 -4.686 11.313v10.746a16 16 0 0 0 4.686 11.313 16 16 0 0 1 0 22.628 16 16 0 0 0 -4.686 11.313v10.746a16 16 0 0 0 4.686 11.313 16 16 0 0 1 0 22.628 16 16 0 0 0 -4.686 11.313v17.373a24 24 0 0 0 24 24h144a24 24 0 0 0 24-24v-17.373a16 16 0 0 0 -4.686-11.313 16 16 0 0 1 0-22.628 16 16 0 0 0 4.686-11.313v-10.746a16 16 0 0 0 -4.686-11.313 16 16 0 0 1 0-22.628 16 16 0 0 0 4.686-11.313v-10.746a16 16 0 0 0 -4.686-11.313 16 16 0 0 1 0-22.628 16 16 0 0 0 4.686-11.313v-10.746a16 16 0 0 0 -4.686-11.313 16 16 0 0 1 0-22.628z" fill="#99ced5"/><path d="m251.31 244.69a16.006 16.006 0 0 0 0 22.62 16.008 16.008 0 0 1 4.69 11.32v10.74a15.927 15.927 0 0 1 -1.22 6.13 16.087 16.087 0 0 1 -3.47 5.19 16.006 16.006 0 0 0 0 22.62 16.008 16.008 0 0 1 4.69 11.32v10.74a15.927 15.927 0 0 1 -1.22 6.13 16.087 16.087 0 0 1 -3.47 5.19 16.006 16.006 0 0 0 0 22.62 16.008 16.008 0 0 1 4.69 11.32v10.74a15.927 15.927 0 0 1 -1.22 6.13 16.087 16.087 0 0 1 -3.47 5.19 16.006 16.006 0 0 0 0 22.62 16.008 16.008 0 0 1 4.69 11.32v17.37a24.006 24.006 0 0 1 -24 24h-144a24.006 24.006 0 0 1 -24-24v-17.37a15.927 15.927 0 0 1 1.22-6.13 16.087 16.087 0 0 1 3.47-5.19 16.006 16.006 0 0 0 0-22.62 16.008 16.008 0 0 1 -4.69-11.32v-10.74a15.927 15.927 0 0 1 1.22-6.13 16.087 16.087 0 0 1 3.47-5.19 16.006 16.006 0 0 0 0-22.62 16.008 16.008 0 0 1 -4.69-11.32v-10.74a15.927 15.927 0 0 1 1.22-6.13 16.087 16.087 0 0 1 3.47-5.19 16.006 16.006 0 0 0 0-22.62 16.008 16.008 0 0 1 -4.69-11.32v-10.74a15.927 15.927 0 0 1 1.22-6.13 16.087 16.087 0 0 1 3.47-5.19 16.006 16.006 0 0 0 0-22.62 16.008 16.008 0 0 1 -4.69-11.32v-41.37a150.319 150.319 0 0 1 24-5.88 148.622 148.622 0 0 1 16-1.69q3.99-.225 8-.22a151.584 151.584 0 0 1 48 7.79 151.777 151.777 0 0 0 96 0v41.37a15.927 15.927 0 0 1 -1.22 6.13 16.087 16.087 0 0 1 -3.47 5.19z" fill="#4db6e4"/><g fill="#3ba5d3"><path d="m96 280h128v16h-128z"/><path d="m96 336h128v16h-128z"/><path d="m96 392h128v16h-128z"/></g><path d="m424 488h-112l-24-224h160z" fill="#99ced5"/><path d="m293.143 312 18.857 176h112l18.857-176-9.34 3.487a82.212 82.212 0 0 1 -65.517-3.487 82.212 82.212 0 0 0 -65.517-3.487z" fill="#4db6e4"/><path d="m320.724 335.387h16v16.66h-16z" fill="#5cc1ed" transform="matrix(.994 -.107 .107 .994 -34.747 36.977)"/><path d="m326.754 367.817h16v64.366h-16z" fill="#5cc1ed" transform="matrix(.994 -.107 .107 .994 -40.707 37.938)"/><path d="m114.231 149.553-12.314-10.217a60.314 60.314 0 0 1 13.746-12.194l8.673 13.445a44.373 44.373 0 0 0 -10.105 8.966z" fill="#add7db"/><path d="m104 208h-16v-30.03a60.024 60.024 0 0 1 6.176-26.67l14.363 7.049a44.16 44.16 0 0 0 -4.539 19.621z" fill="#add7db"/><path d="m104 184.43v23.57h-16v-21.88a148.622 148.622 0 0 1 16-1.69z" fill="#5cc1ed"/></g></svg>